<?xml version="1.0" encoding="UTF-8"?>
<svg id="Layer_2" data-name="Layer 2" xmlns="http://www.w3.org/2000/svg" viewBox="0 0 179.84 179.84">
  <defs>
    <style>
      .cls-1 {
        fill: #31e361;
      }
    </style>
  </defs>
  <g id="Layer_1-2" data-name="Layer 1">
    <g>
      <path class="cls-1" d="m66.1,34.31l-47.02,110.99C7.13,130.04,0,110.8,0,89.92,0,40.26,40.26,0,89.92,0c22.78,0,43.58,8.47,59.42,22.44-4.62-1.39-9.98-2.09-16.07-2.09h-46.11c-9.18,0-17.48,5.5-21.06,13.95Z"/>
      <path class="cls-1" d="m179.84,89.92c0,49.66-40.26,89.92-89.92,89.92-19.98,0-38.45-6.52-53.37-17.56h10.2c7.01,0,13.34-4.19,16.08-10.64l9.9-23.36c2.08-4.92,6.91-8.12,12.26-8.12h4.61c10.82,0,21.13-2.01,30.94-6.03,9.81-4.02,18.54-9.73,26.2-17.18,7.65-7.43,13.64-16.23,17.95-26.39,3.5-8.26,5.16-15.67,4.98-22.21,6.5,12.43,10.18,26.58,10.18,41.59Z"/>
      <path class="cls-1" d="m127.43,72.72l-31.65,12.57c-4.5,1.79-8.93-2.73-7.04-7.19l10.12-23.88c1.3-3.05,4.99-4.26,7.83-2.54l21.54,11.31c3.86,2.32,3.4,8.06-.79,9.73Z"/>
    </g>
  </g>
</svg>